{
    "asset" : {
        "generator" : "Khronos glTF Blender I/O v1.5.17",
        "version" : "2.0"
    },
    "scene" : 0,
    "scenes" : [
        {
            "name" : "Scene",
            "nodes" : [
                0,
                1,
                2,
                3,
                4
            ]
        }
    ],
    "nodes" : [
        {
            "mesh" : 0,
            "name" : "stalk01.001",
            "scale" : [
                1,
                0.8908670544624329,
                1
            ]
        },
        {
            "mesh" : 1,
            "name" : "stalk01.002",
            "scale" : [
                1,
                0.8908670544624329,
                1
            ],
            "translation" : [
                -0.4832296371459961,
                0,
                0.486278235912323
            ]
        },
        {
            "mesh" : 2,
            "name" : "stalk01.003",
            "rotation" : [
                0,
                -0.9287703037261963,
                0,
                0.3706560730934143
            ],
            "scale" : [
                1,
                0.8908670544624329,
                1
            ],
            "translation" : [
                0.4956554174423218,
                0,
                0.46439236402511597
            ]
        },
        {
            "mesh" : 3,
            "name" : "stalk01.004",
            "rotation" : [
                0,
                -0.4586045444011688,
                0,
                0.8886404633522034
            ],
            "scale" : [
                1,
                0.8908670544624329,
                1
            ],
            "translation" : [
                0.5260173678398132,
                0,
                -0.4135323762893677
            ]
        },
        {
            "mesh" : 4,
            "name" : "stalk01.005",
            "rotation" : [
                0,
                0.36285749077796936,
                0,
                0.9318446516990662
            ],
            "scale" : [
                1,
                0.8908670544624329,
                1
            ],
            "translation" : [
                -0.3098519444465637,
                0,
                -0.36916854977607727
            ]
        }
    ],
    "materials" : [
        {
            "doubleSided" : true,
            "name" : "leaf1.005",
            "pbrMetallicRoughness" : {
                "baseColorFactor" : [
                    0.800000011920929,
                    0.800000011920929,
                    0.800000011920929,
                    1
                ],
                "metallicFactor" : 0,
                "roughnessFactor" : 0.5
            }
        },
        {
            "doubleSided" : true,
            "name" : "leaf1.006",
            "pbrMetallicRoughness" : {
                "baseColorFactor" : [
                    0.800000011920929,
                    0.800000011920929,
                    0.800000011920929,
                    1
                ],
                "metallicFactor" : 0,
                "roughnessFactor" : 0.5
            }
        },
        {
            "doubleSided" : true,
            "name" : "leaf1.007",
            "pbrMetallicRoughness" : {
                "baseColorFactor" : [
                    0.800000011920929,
                    0.800000011920929,
                    0.800000011920929,
                    1
                ],
                "metallicFactor" : 0,
                "roughnessFactor" : 0.5
            }
        },
        {
            "doubleSided" : true,
            "name" : "leaf1.008",
            "pbrMetallicRoughness" : {
                "baseColorFactor" : [
                    0.800000011920929,
                    0.800000011920929,
                    0.800000011920929,
                    1
                ],
                "metallicFactor" : 0,
                "roughnessFactor" : 0.5
            }
        },
        {
            "doubleSided" : true,
            "name" : "leaf1.009",
            "pbrMetallicRoughness" : {
                "baseColorFactor" : [
                    0.800000011920929,
                    0.800000011920929,
                    0.800000011920929,
                    1
                ],
                "metallicFactor" : 0,
                "roughnessFactor" : 0.5
            }
        }
    ],
    "meshes" : [
        {
            "name" : "Plane.008",
            "primitives" : [
                {
                    "attributes" : {
                        "POSITION" : 0,
                        "NORMAL" : 1,
                        "TEXCOORD_0" : 2
                    },
                    "indices" : 3,
                    "material" : 0
                }
            ]
        },
        {
            "name" : "Plane.009",
            "primitives" : [
                {
                    "attributes" : {
                        "POSITION" : 4,
                        "NORMAL" : 5,
                        "TEXCOORD_0" : 6
                    },
                    "indices" : 3,
                    "material" : 1
                }
            ]
        },
        {
            "name" : "Plane.010",
            "primitives" : [
                {
                    "attributes" : {
                        "POSITION" : 7,
                        "NORMAL" : 8,
                        "TEXCOORD_0" : 9
                    },
                    "indices" : 3,
                    "material" : 2
                }
            ]
        },
        {
            "name" : "Plane.011",
            "primitives" : [
                {
                    "attributes" : {
                        "POSITION" : 10,
                        "NORMAL" : 11,
                        "TEXCOORD_0" : 12
                    },
                    "indices" : 3,
                    "material" : 3
                }
            ]
        },
        {
            "name" : "Plane.012",
            "primitives" : [
                {
                    "attributes" : {
                        "POSITION" : 13,
                        "NORMAL" : 14,
                        "TEXCOORD_0" : 15
                    },
                    "indices" : 3,
                    "material" : 4
                }
            ]
        }
    ],
    "accessors" : [
        {
            "bufferView" : 0,
            "componentType" : 5126,
            "count" : 176,
            "max" : [
                0.838755190372467,
                4.848859786987305,
                0.5692198276519775
            ],
            "min" : [
                -0.7746815085411072,
                -0.4907785654067993,
                -0.8368170261383057
            ],
            "type" : "VEC3"
        },
        {
            "bufferView" : 1,
            "componentType" : 5126,
            "count" : 176,
            "type" : "VEC3"
        },
        {
            "bufferView" : 2,
            "componentType" : 5126,
            "count" : 176,
            "type" : "VEC2"
        },
        {
            "bufferView" : 3,
            "componentType" : 5123,
            "count" : 540,
            "type" : "SCALAR"
        },
        {
            "bufferView" : 4,
            "componentType" : 5126,
            "count" : 176,
            "max" : [
                0.838755190372467,
                4.848859786987305,
                0.5692198276519775
            ],
            "min" : [
                -0.7746815085411072,
                -0.4907785654067993,
                -0.8368170261383057
            ],
            "type" : "VEC3"
        },
        {
            "bufferView" : 5,
            "componentType" : 5126,
            "count" : 176,
            "type" : "VEC3"
        },
        {
            "bufferView" : 6,
            "componentType" : 5126,
            "count" : 176,
            "type" : "VEC2"
        },
        {
            "bufferView" : 7,
            "componentType" : 5126,
            "count" : 176,
            "max" : [
                0.838755190372467,
                4.848859786987305,
                0.5692198276519775
            ],
            "min" : [
                -0.7746815085411072,
                -0.4907785654067993,
                -0.8368170261383057
            ],
            "type" : "VEC3"
        },
        {
            "bufferView" : 8,
            "componentType" : 5126,
            "count" : 176,
            "type" : "VEC3"
        },
        {
            "bufferView" : 9,
            "componentType" : 5126,
            "count" : 176,
            "type" : "VEC2"
        },
        {
            "bufferView" : 10,
            "componentType" : 5126,
            "count" : 176,
            "max" : [
                0.838755190372467,
                4.848859786987305,
                0.5692198276519775
            ],
            "min" : [
                -0.7746815085411072,
                -0.4907785654067993,
                -0.8368170261383057
            ],
            "type" : "VEC3"
        },
        {
            "bufferView" : 11,
            "componentType" : 5126,
            "count" : 176,
            "type" : "VEC3"
        },
        {
            "bufferView" : 12,
            "componentType" : 5126,
            "count" : 176,
            "type" : "VEC2"
        },
        {
            "bufferView" : 13,
            "componentType" : 5126,
            "count" : 176,
            "max" : [
                0.838755190372467,
                4.848859786987305,
                0.5692198276519775
            ],
            "min" : [
                -0.7746815085411072,
                -0.4907785654067993,
                -0.8368170261383057
            ],
            "type" : "VEC3"
        },
        {
            "bufferView" : 14,
            "componentType" : 5126,
            "count" : 176,
            "type" : "VEC3"
        },
        {
            "bufferView" : 15,
            "componentType" : 5126,
            "count" : 176,
            "type" : "VEC2"
        }
    ],
    "bufferViews" : [
        {
            "buffer" : 0,
            "byteLength" : 2112,
            "byteOffset" : 0
        },
        {
            "buffer" : 0,
            "byteLength" : 2112,
            "byteOffset" : 2112
        },
        {
            "buffer" : 0,
            "byteLength" : 1408,
            "byteOffset" : 4224
        },
        {
            "buffer" : 0,
            "byteLength" : 1080,
            "byteOffset" : 5632
        },
        {
            "buffer" : 0,
            "byteLength" : 2112,
            "byteOffset" : 6712
        },
        {
            "buffer" : 0,
            "byteLength" : 2112,
            "byteOffset" : 8824
        },
        {
            "buffer" : 0,
            "byteLength" : 1408,
            "byteOffset" : 10936
        },
        {
            "buffer" : 0,
            "byteLength" : 2112,
            "byteOffset" : 12344
        },
        {
            "buffer" : 0,
            "byteLength" : 2112,
            "byteOffset" : 14456
        },
        {
            "buffer" : 0,
            "byteLength" : 1408,
            "byteOffset" : 16568
        },
        {
            "buffer" : 0,
            "byteLength" : 2112,
            "byteOffset" : 17976
        },
        {
            "buffer" : 0,
            "byteLength" : 2112,
            "byteOffset" : 20088
        },
        {
            "buffer" : 0,
            "byteLength" : 1408,
            "byteOffset" : 22200
        },
        {
            "buffer" : 0,
            "byteLength" : 2112,
            "byteOffset" : 23608
        },
        {
            "buffer" : 0,
            "byteLength" : 2112,
            "byteOffset" : 25720
        },
        {
            "buffer" : 0,
            "byteLength" : 1408,
            "byteOffset" : 27832
        }
    ],
    "buffers" : [
        {
            "byteLength" : 29240,
            "uri" : "plant-edit.bin"
        }
    ]
}
